<?xml version="1.0" encoding="UTF-8"?>
<svg id="icon_x5F__x5F_guild-wars--v1_xA0_Image" xmlns="http://www.w3.org/2000/svg" width="139.5" height="139.5" version="1.1" viewBox="0 0 139.5 139.5">
  <!-- Generator: Adobe Illustrator 29.0.0, SVG Export Plug-In . SVG Version: 2.1.0 Build 186)  -->
  <path d="M78,31c0-5.2,0-10.3,0-15.5h15V0h46.5v46.5c-5.2,0-10.3,0-15.5,0,0,5.2,0,10.3,0,15.5-5.2,0-10.3,0-15.5,0,0,5.2,0,10.3,0,15.5-5.2,0-10.3,0-15.5,0,0,5.2,0,10.3,0,15.5-5.2,0-10.3,0-15.5,0v15.5h15.5v15.5h-31v-15.5h-15.5v15.5h-15.5v15.5H0v-31h15.5v-15.5h15.5v-15.5h-15.5v-31h15.5v15.5h15.5v-15.5h15.5v15.5h-15.5v15.5h15.5v15.5h15.5c0-5.2,0-10.3,0-15.5,5.2,0,10.3,0,15.5,0,0-5.2,0-10.3,0-15.5,5.2,0,10.3,0,15.5,0,0-5.2,0-10.3,0-15.5,5.2,0,10.3,0,15.5,0,0-10.3,0-20.7,0-31h-30.5v15.5c-5.2,0-10.3,0-15.5,0,0,5.2,0,10.3,0,15.5h-15.5v-15.5c5.2,0,10.3,0,15.5,0Z"/>
</svg>