<?xml version="1.0" encoding="utf-8"?>
<!-- Generator: Adobe Illustrator 25.2.1, SVG Export Plug-In . SVG Version: 6.00 Build 0)  -->
<svg version="1.1" id="icon_x5F__x5F_task_xA0_Image_1_"
	 xmlns="http://www.w3.org/2000/svg" xmlns:xlink="http://www.w3.org/1999/xlink" x="0px" y="0px" width="139.2px" height="108.1px"
	 viewBox="0 0 139.2 108.1" style="enable-background:new 0 0 139.2 108.1;" xml:space="preserve">
<g>
	<path d="M61.8,46.4c5.2,0,10.2,0,15.5,0c0-5.2,0-10.2,0-15.5c5.2,0,10.2,0,15.5,0c0-5.2,0-10.2,0-15.5c5.3,0,10.3,0,15.5,0
		c0-5.2,0-10.2,0-15.4c5.2,0,10.2,0,15.5,0c0,5,0,10,0,15.2c5.2,0,10.2,0,15.4,0c0,5.2,0,10.2,0,15.5c-5,0-10,0-15.3,0
		c0,5.2,0,10.2,0,15.5c-5.2,0-10.2,0-15.5,0c0,5.2,0,10.2,0,15.5c-5.2,0-10.2,0-15.5,0c0,5.3,0,10.3,0,15.5c-5.2,0-10.2,0-15.5,0
		c0,5.2,0,10.2,0,15.5c-5.3,0-10.3,0-15.5,0c0,5.2,0,10.2,0,15.4c-5.2,0-10.2,0-15.5,0c0-5,0-10,0-15.3c-5.2,0-10.2,0-15.5,0
		c0-5.2,0-10.2,0-15.5c-5.2,0-10.2,0-15.5,0c0-5.2,0-10.2,0-15.5c-5.3,0-10.3,0-15.5,0c0-5.2,0-10.2,0-15.5c5,0,10,0,15.3,0
		c0-5.3,0-10.3,0-15.5c5.2,0,10.2,0,15.5,0c0,5,0,10,0,15.3c5.3,0,10.3,0,15.5,0c0,5.2,0,10.2,0,15.4c5.2,0,10.2,0,15.5,0
		C61.8,56.6,61.8,51.6,61.8,46.4z"/>
</g>
</svg>
