<?xml version="1.0" encoding="utf-8"?>
<!-- Generator: Adobe Illustrator 25.2.1, SVG Export Plug-In . SVG Version: 6.00 Build 0)  -->
<svg version="1.1" id="icon_x5F__x5F_timer_xA0_Image_1_"
	 xmlns="http://www.w3.org/2000/svg" xmlns:xlink="http://www.w3.org/1999/xlink" x="0px" y="0px" width="123.7px" height="139.1px"
	 viewBox="0 0 123.7 139.1" style="enable-background:new 0 0 123.7 139.1;" xml:space="preserve">
<g>
	<path d="M31.4,92.8c0-5.1,0-10.1,0-15.5c5,0,9.8,0,14.8,0c0-5.2,0-10.2,0-15.4c-5,0-10,0-15.3,0c0-5.3,0-10.3,0-15.5
		c-5.2,0-10.2,0-15.4,0c0-10.4,0-20.6,0-31c-5.3,0-10.3,0-15.5,0C0,10.1,0,5.2,0,0c41.1,0,82.3,0,123.7,0c0,5,0,10,0,15.3
		c-5,0-10.1,0-15.3,0c0,10.4,0,20.5,0,30.9c-5.2,0-10.2,0-15.5,0c0,5.3,0,10.3,0,15.6c-5.3,0-10.4,0-15.2,0c0,5.2,0,10.2,0,15.4
		c5.1,0,10,0,15.1,0c0,5.4,0,10.5,0,15.7l0.1-0.1c-5.1,0-10.2,0-15.6,0c0-5,0-9.7,0-14.6c-10.3,0-20.2,0-30.5,0c0,5.2,0,9.9,0,14.6
		C41.5,92.8,36.4,92.8,31.4,92.8L31.4,92.8z M92.7,30.7c0-5.2,0-10.2,0-15.2c-20.7,0-41.2,0-61.7,0c0,5.2,0,10.1,0,15.2
		C51.6,30.7,72,30.7,92.7,30.7z"/>
	<path d="M92.8,92.8c5.1,0,10.1,0,15.5,0c0,10.3,0,20.5,0,30.9c5.2,0,10.2,0,15.4,0c0,5.2,0,10.2,0,15.4c-41.2,0-82.3,0-123.7,0
		c0-5,0-10,0-15.2c5,0,10,0,15.2,0c0.3-10.4,0.5-20.6,0.8-31.1c5.1,0,10.3,0,15.4,0c0,0-0.1-0.1-0.1-0.1c0,10.3,0,20.5,0,30.9
		c20.3,0,40.9,0,61.6,0C92.9,113.2,92.9,103,92.8,92.8L92.8,92.8z"/>
</g>
</svg>
