<?xml version="1.0" encoding="utf-8"?>
<!-- Generator: Adobe Illustrator 25.2.1, SVG Export Plug-In . SVG Version: 6.00 Build 0)  -->
<svg version="1.1" id="icon_x5F__x5F_tools_xA0_Image_1_"
	 xmlns="http://www.w3.org/2000/svg" xmlns:xlink="http://www.w3.org/1999/xlink" x="0px" y="0px" width="153.7px" height="153.6px"
	 viewBox="0 0 153.7 153.6" style="enable-background:new 0 0 153.7 153.6;" xml:space="preserve">
<g>
	<path d="M123.3,29.8c10.1,0,20.1,0,30.4,0c0,15.6,0,30.9,0,46.5c-20.3,0-40.6,0-61.2,0c0,5.2,0,10.2,0,15.5c-5.1,0-10,0-15,0
		c0,20.7,0,41.2,0,61.9c-15.5,0-30.9,0-46.6,0c0-10.2,0-20.5,0-30.8c5.1,0,10.2,0,15.4,0c0-5.3,0-10.3,0-15.3c-5.2,0-10.2,0-15.3,0
		c0,5.2,0,10.3,0,15.4c-10.2,0-20.5,0-30.9,0c0-15.6,0-30.9,0-46.5c20.3,0,40.6,0,61.2,0c0-5.2,0-10.2,0-15.5c5.5,0,10.7,0,16,0
		c0-20.4,0-40.5,0-60.9c15.4,0,30.6,0,46.1,0C123.4,9.9,123.4,19.9,123.3,29.8c-4.9,0.1-9.8,0.1-14.8,0.1c0,5.3,0,10.3,0,15.3
		c5,0,9.9,0,14.8,0C123.3,39.9,123.3,34.8,123.3,29.8z"/>
</g>
</svg>
