<?xml version="1.0" encoding="utf-8"?>
<!-- Generator: Adobe Illustrator 25.2.1, SVG Export Plug-In . SVG Version: 6.00 Build 0)  -->
<svg version="1.1" id="icon_x5F__x5F_pass_xA0_Image_1_"
	 xmlns="http://www.w3.org/2000/svg" xmlns:xlink="http://www.w3.org/1999/xlink" x="0px" y="0px" width="169.2px" height="170.1px"
	 viewBox="0 0 169.2 170.1" style="enable-background:new 0 0 169.2 170.1;" xml:space="preserve">
<style type="text/css">
	.st0{fill:#E3FF36;}
</style>
<g>
	<path class="st0" d="M76.9,154.8c-5.2,0-10.1,0-15,0c0,5.1,0,10.1,0,15.3c-5.2,0-10.2,0-15.5,0c0-15,0-30,0-45.2
		c-15.6,0-30.9,0-46.4,0c0-5.2,0-10.2,0-15.5c5,0,10,0,15.2,0c0-5.2,0-10.2,0-15.4c5.2,0,10.2,0,15.5,0c0-5.3,0-10.3,0-15.5
		c5.2,0,10.2,0,15.4,0c0-5.2,0-10.2,0-15.5c5.3,0,10.3,0,15.5,0c0-5.6,0-10.9,0-16.4c5.2,0,10.2,0,15.5,0c0-5.3,0-10.3,0-15.5
		c5.1,0,9.9,0,14.9,0c0-5.2,0-10.2,0-15.5c5.1,0,10,0,15,0c0-5.2,0-10.2,0-15.4c5.2,0,10.2,0,15.5,0c0,10.2,0,20.4,0,30.8
		c5.6,0,10.9,0,16.4,0c0,5.2,0,10.2,0,15.5c10.1,0,20,0,30,0c0,5.2,0,10.2,0,15.4c-5,0-10.1,0-15.4,0c0,5.3,0,10.3,0,15.5
		c-5.2,0-10.2,0-15.4,0c0,5.2,0,10.2,0,15.4c-4.9,0-9.5,0-14.4,0c0,5.2,0,10.2,0,15.5c-5.3,0-10.3,0-15.5,0c0,5.2,0,10.2,0,15.4
		c-5.4,0-10.6,0-16,0c0,5.3,0,10.3,0,15.5c-5.2,0-10.2,0-15.4,0C76.9,144.4,76.9,149.5,76.9,154.8z"/>
</g>
</svg>
