<?xml version="1.0" encoding="utf-8"?>
<!-- Generator: Adobe Illustrator 25.2.1, SVG Export Plug-In . SVG Version: 6.00 Build 0)  -->
<svg version="1.1" id="icon_x5F__x5F_graph_xA0_Image_1_"
	 xmlns="http://www.w3.org/2000/svg" xmlns:xlink="http://www.w3.org/1999/xlink" x="0px" y="0px" width="185.7px" height="123.7px"
	 viewBox="0 0 185.7 123.7" style="enable-background:new 0 0 185.7 123.7;" xml:space="preserve">
<g>
	<g>
		<path d="M30.9,123.3c-5.3,0-10.3,0-15.5,0c0-5.1,0-10.1,0-15.3c-5.2,0-10.2,0-15.4,0c0-5.2,0-10.2,0-15.5c5,0,10.1,0,15.3,0
			c0-5.2,0-10.2,0-15.4c5.2,0,10.2,0,15.4,0c0-5.1,0-9.9,0-14.9c5.2,0,10.2,0,15.5,0c0-5.3,0-10.3,0-15.5c5.2,0,10.2,0,15.4,0
			c0,5,0,10,0,15.3c5.3,0,10.3,0,15.5,0c0,5.2,0,10.2,0,15.4c5.2,0,10.2,0,15.5,0c0-5,0-10,0-15.2c5.2,0,10.2,0,15.4,0
			c0-5.2,0-10.2,0-15.5c5.3,0,10.3,0,15.5,0c0-5.2,0-10.2,0-15.4c5.2,0,10.2,0,15.4,0c0-5.3,0-10.3,0-15.5c-5,0-10,0-15.2,0
			c0-5.2,0-10.2,0-15.4c20.5,0,41,0,61.7,0c0,20.6,0,41,0,61.7c-5,0-10,0-15.3,0c0-5,0-10,0-15.2c-5.2,0-10.2,0-15.4,0
			c0,5,0,10.1,0,15.4c-5.3,0-10.3,0-15.5,0c0,5.2,0,10.2,0,15.4c-5.2,0-10.2,0-15.4,0c0,5.2,0,10.2,0,15.4c-5.2,0-10.2,0-15.5,0
			c0,5.3,0,10.3,0,15.5c-5.2,0-10.2,0-15.4,0c0,5.2,0,10.2,0,15.4c-5.3,0-10.3,0-15.5,0c0-5,0-10,0-15.2c-5.2,0-10.2,0-15.5,0
			c0-5.3,0-10.3,0-15.5c-5.2,0-10.2,0-15.4,0c0,4.8,0,9.7,0,14.8c-5.3,0-10.3,0-15.5,0C30.9,113,30.9,118,30.9,123.3z"/>
	</g>
</g>
</svg>
