<?xml version="1.0" encoding="utf-8"?>
<!-- Generator: Adobe Illustrator 25.2.1, SVG Export Plug-In . SVG Version: 6.00 Build 0)  -->
<svg version="1.1" id="icon_x5F__x5F_xmark_xA0_Image_1_"
	 xmlns="http://www.w3.org/2000/svg" xmlns:xlink="http://www.w3.org/1999/xlink" x="0px" y="0px" width="107.8px" height="108.3px"
	 viewBox="0 0 107.8 108.3" style="enable-background:new 0 0 107.8 108.3;" xml:space="preserve">
<g>
	<path d="M92.9,0c0,5.1,0,10.1,0,15.3c5,0,9.9,0,14.9,0c0,5.2,0,10.2,0,15.5c-4.9,0-9.7,0-14.8,0c0,5.2,0,10.2,0,15.5
		c-5.2,0-10.2,0-15.4,0c0,5.3,0,10.3,0,15.5c4.8,0,9.6,0,14.7,0c0,5.2,0,10.2,0,15.5c5.3,0,10.3,0,15.5,0c0,5.2,0,10.2,0,15.5
		c-4.8,0-9.7,0-14.8,0c0,5.3,0,10.3,0,15.5c-5.2,0-10.2,0-15.5,0c0-5,0-10.1,0-15.3c-5.2,0-10.2,0-15.5,0c0-5.2,0-10.2,0-15.4
		c-5.5,0-10.7,0-16,0c0,5,0,10,0,15.2c-5,0-9.9,0-15,0c0,5.3,0,10.3,0,15.5c-5.2,0-10.2,0-15.5,0c0-4.7,0-9.4,0-14.3
		c-5.3,0-10.3,0-15.5,0c0-5.2,0-10.2,0-15.5c5,0,10.1,0,15.3,0c0-5.2,0-10.2,0-15.5c5.2,0,10.2,0,15.4,0c0-5.6,0-11,0-16.5
		c-5,0-10,0-15.2,0c0-5.2,0-10.2,0-15.5c-5.3,0-10.3,0-15.5,0c0-5.2,0-10.2,0-15.5c5,0,10,0,15.3,0c0-5.3,0-10.3,0-15.5
		c5.2,0,10.2,0,15.5,0c0,5,0,10.1,0,15.3c5.2,0,10.2,0,15.5,0c0,5.2,0,10.2,0,15.4c5.3,0,10.3,0,15.5,0c0-5,0-10,0-15.2
		c5.2,0,10.2,0,15.5,0c0-5.3,0-10.3,0-15.5C82.6,0,87.5,0,92.9,0z"/>
</g>
</svg>
