<?xml version="1.0" encoding="UTF-8"?><svg id="a" xmlns="http://www.w3.org/2000/svg" viewBox="0 0 155 155"><path d="M62,77.5c.01,5.16,0,10.34,0,15.5,5.16,0,10.34-.02,15.5,0,.02,15.49-.02,31.01,0,46.5h-15.5v15.5H15.5v-15.5H0v-46.5h15.5v-15.5c15.49.02,31.01-.02,46.5,0ZM46.5,93h-15.5v15.5h-15.5v15.5h15.5v15.5h15.5v-15.5h15.5v-15.5h-15.5v-15.5Z"/><path d="M62,62c-5.16-.03-10.34.02-15.5,0v-14.5h-15.5v-15.5h15.5v14.5h15.5c0,5.16-.01,10.34,0,15.5,5.16.03,10.34-.02,15.5,0,0,5.16-.02,10.34,0,15.5-5.16-.01-10.34,0-15.5,0-.01-5.16.01-10.34,0-15.5Z"/><path d="M77.5,77.5c5.16.01,10.34,0,15.5,0,.01,5.16-.03,10.34,0,15.5,5.16.01,10.34,0,15.5,0v15.5h15v15.5h-15.5v-15.5h-15c-.02-5.16.03-10.34,0-15.5-5.16-.01-10.34.01-15.5,0,0-5.16.01-10.34,0-15.5Z"/><path d="M139,0v15.5h16v46.5h-15v15.5h-46.5v-15.5h-15.5V15.5h15.5V0h45.5ZM124.5,15.5h-15.5v15.5h-15.5v16.5h15.5v14.5h15.5v-15.5h15v-15.5h-15v-15.5Z"/></svg>