<?xml version="1.0" encoding="UTF-8"?><svg id="a" xmlns="http://www.w3.org/2000/svg" viewBox="0 0 108.5 106.5"><path d="M31,30c.03-5.16-.02-10.34,0-15.5h15.5V0h31c.02,5.16-.03,10.34,0,15.5-10.32-.05-20.68.04-31,0v14.5c-5.16.02-10.34-.03-15.5,0Z"/><path d="M77.5,15.5c5.16.03,10.34-.02,15.5,0v14.5h15.5v30c-5.16.02-10.34-.03-15.5,0,.05-9.66-.04-19.34,0-29h-15.5c-.02-5.16.03-10.34,0-15.5Z"/><path d="M31,30c-.05,9.99.01,20.01,0,30-5.16-.03-10.34.02-15.5,0v-30c5.16-.02,10.34.03,15.5,0Z"/><path d="M31,60c5.16.03,10.34-.02,15.5,0,.01,5.16-.03,10.34,0,15.5-5.16,0-10.34-.01-15.5,0-.01,5.16,0,10.34,0,15.5-5.16.01-10.34-.03-15.5,0-.03,5.16.02,10.34,0,15.5H0v-15.5c5.16-.02,10.34.03,15.5,0,.03-5.16-.02-10.34,0-15.5,5.16,0,10.34.02,15.5,0,.01-5.16,0-10.34,0-15.5Z"/><path d="M93,60c-.03,5.16.02,10.34,0,15.5-5.16.02-10.34-.03-15.5,0,.03-5.16-.02-10.34,0-15.5,5.16-.01,10.34.03,15.5,0Z"/><path d="M77.5,75.5c-.03,5.16.02,10.34,0,15.5h-31c-.02-5.16.03-10.34,0-15.5,10.32-.02,20.68.05,31,0Z"/></svg>