<?xml version="1.0" encoding="utf-8"?>
<!-- Generator: Adobe Illustrator 25.2.1, SVG Export Plug-In . SVG Version: 6.00 Build 0)  -->
<svg version="1.1" id="icon_x5F__x5F_profile_xA0_Image_1_"
    xmlns="http://www.w3.org/2000/svg" xmlns:xlink="http://www.w3.org/1999/xlink" x="0px" y="0px"
    width="169.2px" height="185.7px"
    viewBox="0 0 169.2 185.7" style="enable-background:new 0 0 169.2 185.7;" xml:space="preserve">
<style type="text/css">
.st0{fill:#E3FF36;}
</style>
<g>
<path class="st0" d="M0,185.7c0-15.5,0-30.7,0-46.2c5.1,0,10,0,15.3,0c0-5.2,0-10.2,0-15.5c5.3,0,10.3,0,15.5,0
c0-5.2,0-10.2,0-15.4c5.2,0,10.2,0,15.5,0c0,5,0,10,0,15.2c25.6,0,50.9,0,76.4,0c0-5,0-10,0-15.2c5.3,0,10.3,0,15.5,0
c0,5,0,10,0,15.2c5.2,0,10.2,0,15.5,0c0,5.3,0,10.3,0,15.5c5.2,0,10.2,0,15.4,0c0,15.5,0,30.9,0,46.4
C112.9,185.7,56.6,185.7,0,185.7z"/>
<path class="st0" d="M122.9,30.8c5.2,0,10.2,0,15.4,0c0,15.5,0,30.9,0,46.5c-5,0-10.1,0-15.3,0c0,5.2,0,10.2,0,15.4
c-5.2,0-10.2,0-15.4,0c0,5.2,0,10.2,0,15.4c-15.2,0-30.2,0-45.5,0c0-5,0-10,0-15.2c-5.2,0-10.2,0-15.4,0c0-5.2,0-10.2,0-15.5
c-5.3,0-10.3,0-15.5,0c0-15.6,0-30.9,0-46.4c5,0,10,0,15.3,0c0-5.3,0-10.3,0-15.5c5.2,0,10.2,0,15.4,0c0-5.2,0-10.2,0-15.4
c15.3,0,30.3,0,45.5,0c0,5,0,10,0,15.2c5.2,0,10.2,0,15.5,0C122.9,20.5,122.9,25.6,122.9,30.8z"/>
</g>
</svg>