<?xml version="1.0" encoding="utf-8"?>
<!-- Generator: Adobe Illustrator 25.2.1, SVG Export Plug-In . SVG Version: 6.00 Build 0)  -->
<svg version="1.1" id="icon_x5F__x5F_library_xA0_Image_1_"
	 xmlns="http://www.w3.org/2000/svg" xmlns:xlink="http://www.w3.org/1999/xlink" x="0px" y="0px" width="170.2px" height="139.2px"
	 viewBox="0 0 170.2 139.2" style="enable-background:new 0 0 170.2 139.2;" xml:space="preserve">
<g>
	<path d="M61.9,15.4c15.5,0,31-0.1,46.5-0.1c0,5.1,0,10.3,0,15.6c-5.2,0-10.1,0-14.9,0c0,25.9,0,51.6,0,77.4c5.1,0,10,0,14.9,0
		c0,5.1,0,10.3,0,15.4c15.6,0,31,0,46.3,0c0-5.2,0-10.2,0-15.3c-15.6,0-31,0-46.4,0c0-5.1,0-10.3,0-15.6c10.6,0,20.7,0,30.9,0
		c0-25.9,0-51.6,0-77.4c-10.4,0-20.6,0-30.9,0c0-5.1,0-10.1,0-15.4c15.6,0,30.9,0,46.5,0c0,5,0,10,0,15.2c5.2,0,10.2,0,15.4,0
		c0,41.5,0,82.7,0,124c-56.7,0-113.4,0-170.2,0C0,98,0,56.8,0,15.4c5,0,10,0,15.2,0c0-5.2,0-10.2,0-15.4c15.6,0,31,0,46.8,0
		C62,5.2,62,10.3,61.9,15.4c-10.2,0.1-20.5,0.1-30.9,0.1c0,25.8,0,51.5,0,77.5c10.3,0,20.5,0,30.9,0c0,5.3,0,10.4,0,15.5
		c-15.5,0-30.9,0-46.4,0c0,5.3,0,10.3,0,15.3c15.5,0,30.9,0,46.3,0c0-5.2,0-10.3,0-15.4c5.3,0,10.6,0,15.8,0c0-26,0-51.7,0-77.6
		c-5.3,0-10.5,0-15.7,0C61.9,25.5,61.9,20.5,61.9,15.4z"/>
</g>
</svg>
