<?xml version="1.0" encoding="utf-8"?>
<!-- Generator: Adobe Illustrator 25.2.1, SVG Export Plug-In . SVG Version: 6.00 Build 0)  -->
<svg version="1.1" id="icon_x5F__x5F_refresh_xA0_Image_1_"
	 xmlns="http://www.w3.org/2000/svg" xmlns:xlink="http://www.w3.org/1999/xlink" x="0px" y="0px" width="123.7px" height="123.7px"
	 viewBox="0 0 123.7 123.7" style="enable-background:new 0 0 123.7 123.7;" xml:space="preserve">
<g>
	<path d="M92.8,15.4c5.1,0,10.1,0,15.5,0c0-5.2,0-10.3,0-15.4c5.2,0,10.2,0,15.4,0c0,15.3,0,30.7,0,46.2c-15.3,0-30.7,0-46.2,0
		c0-5,0-10,0-15.2c5,0,10,0,15.4,0C92.9,25.6,92.9,20.5,92.8,15.4L92.8,15.4z"/>
	<path d="M30.9,108.3c-5.1,0-10.1,0-15.5,0c0,5.2,0,10.3,0,15.4c-5.2,0-10.2,0-15.4,0c0-15.3,0-30.7,0-46.2c15.3,0,30.7,0,46.2,0
		c0,5,0,10,0,15.2c-5,0-10,0-15.4,0C30.8,98.1,30.8,103.3,30.9,108.3L30.9,108.3z"/>
	<path d="M92.9,15.3c-19.6,0-39.2,0-58.7,0c-1.1,0-2.2,0-3.3,0c0,0,0.1,0.1,0.1,0.1c0-5.1,0-10.1,0-15.4c20.5,0,41,0,61.8,0
		C92.8,5.1,92.8,10.3,92.9,15.3C92.8,15.4,92.9,15.3,92.9,15.3z"/>
	<path d="M30.8,108.4c19.6,0,39.2,0,58.7,0c1.1,0,2.2,0,3.3,0c0,0-0.1-0.1-0.1-0.1c0,5.1,0,10.1,0,15.4c-20.5,0-41,0-61.8,0
		C30.9,118.6,30.9,113.5,30.8,108.4C30.9,108.3,30.8,108.4,30.8,108.4z"/>
	<path d="M15.4,30.9c0-5,0-10.1,0-15.4c5.2,0,10.4,0,15.6,0c0,0-0.1-0.1-0.1-0.1c0,5.1,0,10.1,0,15.4C25.5,30.8,20.4,30.8,15.4,30.9
		L15.4,30.9z"/>
	<path d="M15.3,30.8c0,5.1,0,10.1,0,15.4c-5.1,0-10.1,0-15.3,0c0-5,0-10,0-15.3C5.1,30.9,10.3,30.9,15.3,30.8
		C15.4,30.9,15.3,30.8,15.3,30.8z"/>
	<path d="M108.4,92.9c0-5.1,0-10.1,0-15.3c5.1,0,10.1,0,15.3,0c0,5,0,10,0,15.3C118.5,92.8,113.4,92.8,108.4,92.9L108.4,92.9z"/>
	<path d="M108.3,92.8c0,5.1,0,10.1,0,15.4c-5.2,0-10.4,0-15.6,0c0,0,0.1,0.1,0.1,0.1c0-5.1,0-10.1,0-15.4
		C98.1,92.9,103.3,92.9,108.3,92.8C108.4,92.9,108.3,92.8,108.3,92.8z"/>
</g>
</svg>
