<?xml version="1.0" encoding="utf-8"?>
<!-- Generator: Adobe Illustrator 25.2.1, SVG Export Plug-In . SVG Version: 6.00 Build 0)  -->
<svg version="1.1" id="icon_x5F__x5F_grabbable_xA0_Image_1_"
	 xmlns="http://www.w3.org/2000/svg" xmlns:xlink="http://www.w3.org/1999/xlink" x="0px" y="0px" width="183.6px" height="185.7px"
	 viewBox="0 0 183.6 185.7" style="enable-background:new 0 0 183.6 185.7;" xml:space="preserve">
<g>
	<path d="M59.9,154.9c0-5.4,0-10.4,0-15.5c5.1,0,10.1,0,15.2,0c0-10.4,0-20.6,0-30.9c-10.2,0-20.4,0-30.8,0c0,5.1,0,10,0,15.2
		c-5.2,0-10.2,0-15.4,0c0-5,0-9.9,0-15.2c-4.5,0-8.9,0-13.5,0c0-2.8,0-5.3,0-8c-5.2,0-10.2,0-15.4,0c0-5.2,0-10.2,0-15.5
		c4.6,0,9.3,0,14.2,0c0-2.6,0-4.9,0-7.4c4.9,0,9.6,0,14.5,0c0-5.3,0-10.3,0-15.5c5.2,0,10.2,0,15.4,0c0,5,0,10,0,15.2
		c10.5,0,20.7,0,31,0c0-10.2,0-20.3,0-30.7c-5,0-10,0-15.2,0c0-5.3,0-10.3,0-15.5c5,0,10,0,15.3,0c0-5.2,0-10.2,0-15.5
		c2.8,0,5.3,0,8,0c0-5.2,0-10.2,0-15.4c5.2,0,10.2,0,15.4,0c0,5,0,9.9,0,15.2c2.5,0,4.9,0,7.5,0c0,5.3,0,10.3,0,15.5
		c5.2,0,10.2,0,15.4,0c0,5.2,0,10.2,0,15.5c-5,0-10,0-15.2,0c0,10.7,0,21.2,0,31.9c10.1,0,20.3,0,30.8,0c0-5,0-10,0-15.2
		c5.2,0,10.2,0,15.4,0c0,5,0,10,0,15.3c5.3,0,10.3,0,15.5,0c0,2.2,0,4.2,0,6.4c5.2,0,10.2,0,15.4,0c0,5.3,0,10.3,0,15.5
		c-5,0-10,0-15.3,0c0,2.7,0,5.2,0,8c-5.3,0-10.3,0-15.5,0c0,5.2,0,10.2,0,15.4c-5.2,0-10.2,0-15.4,0c0-4.6,0-9.3,0-14.1
		c-10.4,0-20.6,0-30.9,0c0,9.8,0,19.6,0,29.7c5,0,10,0,15.1,0c0,5.2,0,10.2,0,15.5c-5,0-10,0-15.2,0c0,5.2,0,10.2,0,15.4
		c-2.5,0-4.9,0-7.5,0c0,5.3,0,10.3,0,15.5c-5.2,0-10.2,0-15.4,0c0-5,0-10,0-15.3c-2.8,0-5.3,0-8,0c0-5.2,0-10.2,0-15.4
		C70.2,154.9,65.1,154.9,59.9,154.9z"/>
</g>
</svg>
