<?xml version="1.0" encoding="utf-8"?>
<!-- Generator: Adobe Illustrator 25.2.1, SVG Export Plug-In . SVG Version: 6.00 Build 0)  -->
<svg version="1.1" id="icon_x5F__x5F_guild_xA0_Image_1_"
	 xmlns="http://www.w3.org/2000/svg" xmlns:xlink="http://www.w3.org/1999/xlink" x="0px" y="0px" width="138.9px" height="170.2px"
	 viewBox="0 0 138.9 170.2" style="enable-background:new 0 0 138.9 170.2;" xml:space="preserve">
<style type="text/css">
	.st0{fill:#E3FF36;}
</style>
<g>
	<path class="st0" d="M46.9,139.3c-5.5,0-10.6,0-15.9,0c0-5.1,0-10.1,0-15.4c-5.1,0-10,0-15,0c0-5.2,0-10.2,0-15.4
		c-5.4,0-10.6,0-15.9,0c0-31.1,0-62,0-93c5,0,10,0,15.3,0c0-5.2,0-10.2,0-15.4c36.3,0,72.3,0,108.5,0c0,5.1,0,10,0,15.3
		c5,0,9.9,0,15.2,0c0,31.1,0,61.9,0,93c-4.8,0-9.8,0-15,0c0,5.2,0,10.2,0,15.4c-5.2,0-10.2,0-15.5,0c0,5.3,0,10.3,0,15.5
		c-5.2,0-10.2,0-15.4,0c0,5.2,0,10.2,0,15.4c-5.2,0-10.2,0-15.4,0c0,5.2,0,10.2,0,15.4c-5.3,0-10.3,0-15.5,0c0-5,0-10,0-15.2
		c-5,0-9.9,0-15,0C46.9,149.7,46.9,144.6,46.9,139.3z"/>
</g>
</svg>
