<?xml version="1.0" encoding="utf-8"?>
<!-- Generator: Adobe Illustrator 25.2.1, SVG Export Plug-In . SVG Version: 6.00 Build 0)  -->
<svg version="1.1" id="icon_x5F__x5F_filter_xA0_Image_1_"
	 xmlns="http://www.w3.org/2000/svg" xmlns:xlink="http://www.w3.org/1999/xlink" x="0px" y="0px" width="123.1px" height="108.2px"
	 viewBox="0 0 123.1 108.2" style="enable-background:new 0 0 123.1 108.2;" xml:space="preserve">
<g>
	<path d="M92.8,46.2c0,5.4,0,10.4,0,15.5c-5.1,0-10.1,0-15.4,0c0,10.4,0,20.6,0,31c-5.3,0-10.3,0-15.5,0c0,5.2,0,10.2,0,15.4
		c-5.2,0-10.2,0-15.5,0c0-15.3,0-30.7,0-46.2c-5.1,0-9.9,0-14.9,0c0-5.2,0-10.2,0-15.5c-5.5,0-10.7,0-16,0c0-5.2,0-10.2,0-15.4
		C10.2,31,5.2,31,0,31C0,20.5,0,10.3,0,0c41,0,82,0,123.1,0c0,10.1,0,20.3,0,30.8c-4.8,0-9.6,0-14.7,0c0,5.2,0,10.2,0,15.4
		C103.2,46.2,98.2,46.2,92.8,46.2z"/>
</g>
</svg>
