<?xml version="1.0" encoding="utf-8"?>
<!-- Generator: Adobe Illustrator 25.2.1, SVG Export Plug-In . SVG Version: 6.00 Build 0)  -->
<svg version="1.1" id="icon_x5F__x5F_premium_xA0_Image_1_"
	 xmlns="http://www.w3.org/2000/svg" xmlns:xlink="http://www.w3.org/1999/xlink" x="0px" y="0px" width="154.7px" height="139.2px"
	 viewBox="0 0 154.7 139.2" style="enable-background:new 0 0 154.7 139.2;" xml:space="preserve">
<g>
	<path d="M15.4,77.3c-5.1,0-10.1,0-15.4,0c0-15.5,0-30.8,0-46.4c5.1,0,10.2,0,15.4,0l-0.1-0.1c0,5.1,0,10.2,0,15.4
		c5.4,0,10.4,0,15.6,0c0-5.2,0-10.3,0-15.4l-0.1,0.1c5.2,0,10.4,0,15.6,0l-0.1-0.1c0,5.1,0,10.3,0,15.4c20.9,0,41.4,0,62.1,0
		c0-5.2,0-10.3,0-15.4l-0.1,0.1c5.2,0,10.4,0,15.6,0l-0.1-0.1c0,5.1,0,10.2,0,15.4c5.4,0,10.4,0,15.6,0c0-5.2,0-10.3,0-15.4
		l-0.1,0.1c5.1,0,10.1,0,15.4,0c0,15.5,0,30.8,0,46.4c-5.1,0-10.2,0-15.4,0l0.1,0.1c0-5.1,0-10.2,0-15.4c-5.4,0-10.4,0-15.6,0
		c0,5.2,0,10.3,0,15.4l0.1-0.1c-5.2,0-10.4,0-15.6,0.1c0-5.1,0-10.3,0-15.4c-20.8,0-41.3,0-61.9,0c0,5.2,0,10.3,0,15.4
		c-5.2,0-10.4,0-15.6-0.1l0.1,0.1c0-5.1,0-10.2,0-15.4c-5.4,0-10.4,0-15.6,0C15.3,67.3,15.3,72.3,15.4,77.3L15.4,77.3z"/>
	<path d="M30.9,15.4c0-5.1,0-10.1,0-15.4c31,0,61.8,0,92.9,0c0,5.1,0,10.2,0,15.4l0.1-0.1c-5.1,0-10.3,0-15.6,0c0,5.4,0,10.5,0,15.6
		l0.1-0.1c-5.1,0-10.3,0-15.7,0c0-5.3,0-10.4,0-15.3c-10.4,0-20.5,0-30.9,0c0,5.2,0,10.2,0,15.3c-5.3,0-10.4,0-15.5,0
		c0,0,0.1,0.1,0.1,0.1c0-5.1,0-10.3,0-15.6C40.9,15.3,35.9,15.3,30.9,15.4L30.9,15.4z"/>
	<path d="M92.8,123.8c0,5.1,0,10.1,0,15.4c-10.3,0-20.5,0-30.9,0c0-5.1,0-10.2,0-15.4l-0.1,0.1C72.2,123.9,82.5,123.9,92.8,123.8
		L92.8,123.8z"/>
	<path d="M15.4,30.9c0-5.1,0-10.1,0-15.5c5.2,0,10.4,0,15.5,0c0,0-0.1-0.1-0.1-0.1c0,5.2,0,10.4,0,15.6c0,0,0.1-0.1,0.1-0.1
		C25.7,30.8,20.5,30.8,15.4,30.9L15.4,30.9z"/>
	<path d="M123.8,15.4c5.1,0,10.1,0,15.5,0c0,5.2,0,10.4,0,15.5c0,0,0.1-0.1,0.1-0.1c-5.2,0-10.4,0-15.6,0l0.1,0.1
		C123.9,25.7,123.9,20.5,123.8,15.4L123.8,15.4z"/>
	<path d="M30.9,92.8c-5.1,0-10.1,0-15.5,0c0-5.2,0-10.4,0-15.5c0,0-0.1,0.1-0.1,0.1c5.2,0,10.4,0,15.6,0l-0.1-0.1
		C30.8,82.5,30.8,87.7,30.9,92.8L30.9,92.8z"/>
	<path d="M139.3,77.3c0,5.1,0,10.1,0,15.5c-5.2,0-10.4,0-15.5,0l0.1,0.1c0-5.2,0-10.4,0-15.6l-0.1,0.1
		C129,77.4,134.2,77.4,139.3,77.3L139.3,77.3z"/>
	<path d="M46.4,108.3c-5.1,0-10.1,0-15.5,0c0-5.2,0-10.4,0-15.5c0,0-0.1,0.1-0.1,0.1c5.2,0,10.4,0,15.6-0.1
		C46.4,98,46.3,103.2,46.4,108.3L46.4,108.3z"/>
	<path d="M123.8,92.8c0,5.1,0,10.1,0,15.5c-5.2,0-10.4,0-15.5,0l0.1,0.1c0-5.2,0-10.4-0.1-15.6C113.5,92.8,118.7,92.9,123.8,92.8
		L123.8,92.8z"/>
	<path d="M61.9,123.8c-5.1,0-10.1,0-15.5,0c0-5.2,0-10.4,0-15.5c0,0-0.1,0.1-0.1,0.1c5.2,0,10.4,0,15.6-0.1
		C61.9,113.5,61.8,118.7,61.9,123.8L61.9,123.8z"/>
	<path d="M108.3,108.3c0,5.1,0,10.1,0,15.5c-5.2,0-10.4,0-15.5,0c0,0,0.1,0.1,0.1,0.1c0-5.2,0-10.4-0.1-15.6
		C98,108.3,103.2,108.4,108.3,108.3L108.3,108.3z"/>
	<ellipse cx="77.3" cy="100.6" rx="22" ry="11"/>
	<path d="M61.9,92.9c-5.2,0-10.4,0-15.6,0c0-5.2,0-10.4,0-15.6c5.1,0,10.1,0,15.6,0C61.9,82.6,61.9,87.7,61.9,92.9z"/>
	<path d="M108.4,92.9c-5.2,0-10.4,0-15.6,0c0-5.1,0-10.1,0-15.6c5.3,0,10.4,0,15.6,0C108.4,82.5,108.4,87.7,108.4,92.9z"/>
</g>
</svg>
