<?xml version="1.0" encoding="utf-8"?>
<!-- Generator: Adobe Illustrator 25.2.1, SVG Export Plug-In . SVG Version: 6.00 Build 0)  -->
<svg version="1.1" id="icon_x5F__x5F_storage_xA0_Image_1_"
	 xmlns="http://www.w3.org/2000/svg" xmlns:xlink="http://www.w3.org/1999/xlink" x="0px" y="0px" width="185.6px" height="154.7px"
	 viewBox="0 0 185.6 154.7" style="enable-background:new 0 0 185.6 154.7;" xml:space="preserve">
<g>
	<path d="M15.3,30.8c0-5.1,0-10.1,0-15.5c5.2,0,10.2,0,15.4,0c0-5.2,0-10.2,0-15.4c41.4,0,82.6,0,124,0c0,5,0,9.9,0,15.2
		c5.2,0,10.2,0,15.6,0c0,5.4,0,10.5,0,15.6c-5.1,0-10.3,0-15.4,0c0,15.6,0,31,0,46.3c5.2,0,10.2,0,15.3,0c0-15.6,0-31,0-46.4
		c5.1,0,10.1,0,15.4,0c0,41.4,0,82.6,0,123.9c-61.9,0-123.6,0-185.6,0c0-41.1,0-82.3,0-123.9C5.1,30.8,10.2,30.8,15.3,30.8
		c0.1,15.4,0.1,30.8,0.1,46.3c5.3,0,10.3,0,15.3,0c0-15.5,0-30.9,0-46.3C25.4,30.8,20.3,30.8,15.3,30.8z M139.2,15.5
		c-31.1,0-61.9,0-92.7,0c0,20.7,0,41.2,0,61.7c10.3,0,20.5,0,30.9,0c0-5.2,0-10.2,0-15.2c10.5,0,20.6,0,31,0c0,5.2,0,10.1,0,15.2
		c10.4,0,20.6,0,30.8,0C139.2,56.5,139.2,36.1,139.2,15.5z M46.4,139.1c31.1,0,61.9,0,92.7,0c0-15.5,0-30.9,0-46.2
		c-10.3,0-20.5,0-30.9,0c0,5.2,0,10.2,0,15.2c-10.5,0-20.6,0-31,0c0-5.2,0-10.1,0-15.2c-10.4,0-20.6,0-30.8,0
		C46.4,108.4,46.4,123.7,46.4,139.1z M30.6,139.2c0-15.6,0-30.9,0-46.2c-5.2,0-10.2,0-15.2,0c0,15.5,0,30.8,0,46.2
		C20.5,139.2,25.5,139.2,30.6,139.2z M170.1,139.2c0-15.5,0-30.9,0-46.2c-5.2,0-10.2,0-15.2,0c0,15.5,0,30.8,0,46.2
		C160,139.2,165,139.2,170.1,139.2z"/>
</g>
</svg>
