<?xml version="1.0" encoding="utf-8"?>
<!-- Generator: Adobe Illustrator 25.2.1, SVG Export Plug-In . SVG Version: 6.00 Build 0)  -->
<svg version="1.1" id="icon_x5F__x5F_show_xA0_Image_1_"
	 xmlns="http://www.w3.org/2000/svg" xmlns:xlink="http://www.w3.org/1999/xlink" x="0px" y="0px" width="216.1px" height="154.7px"
	 viewBox="0 0 216.1 154.7" style="enable-background:new 0 0 216.1 154.7;" xml:space="preserve">
<g>
	<path d="M31.3,46.5c0-5.3,0-10.3,0-15.5c5.2,0,10.2,0,15.5,0c0-5.2,0-10.2,0-15.5c5.2,0,10.2,0,15.5,0c0-5.3,0-10.3,0-15.5
		c31.1,0,61.9,0,92.9,0c0,5,0,10,0,15.3c5.3,0,10.3,0,15.5,0c0,5.2,0,10.2,0,15.5c4.9,0,9.6,0,14.5,0c0,5.2,0,10.2,0,15.5
		c5.2,0,10.2,0,15.5,0c0,5.3,0,10.3,0,15.5c5.2,0,10.2,0,15.4,0c0,10.4,0,20.6,0,31c-5,0-10,0-15.2,0c0,5.2,0,10.2,0,15.5
		c-5.2,0-10.2,0-15.5,0c0,5.3,0,10.3,0,15.5c-5.2,0-10.2,0-15.5,0c0,5.2,0,10.2,0,15.5c-5,0-9.7,0-14.5,0c0,5.2,0,10.2,0,15.4
		c-31,0-61.9,0-92.9,0c0-5,0-10,0-15.2c-5.2,0-10.2,0-15.5,0c0-5.3,0-10.3,0-15.5c-5.2,0-10.2,0-15.5,0c0-4.9,0-9.6,0-14.5
		c-5.5,0-10.7,0-16,0c0-5.6,0-10.9,0-16.5C10.2,93,5.2,93,0,93c0-10.5,0-20.7,0-31c5.1,0,10,0,15.3,0c0-5.2,0-10.2,0-15.5
		C20.7,46.5,25.8,46.5,31.3,46.5z M78,61.8c0,10.6,0,20.7,0,31.1c5.1,0,10.1,0,15.3,0c0,5.2,0,10.2,0,15.3c10.5,0,20.7,0,31,0
		c0-5.1,0-10.1,0-15.3c5.2,0,10.2,0,15.3,0c0-10.5,0-20.7,0-31c-5.1,0-10.1,0-15.3,0c0-5.2,0-10.2,0-15.3c-10.5,0-20.7,0-31,0
		c0,5.1,0,10.1,0,15.3C88.1,61.8,83.2,61.8,78,61.8z"/>
</g>
</svg>
